<svg xmlns="http://www.w3.org/2000/svg" width="24" height="24" fill="none" viewBox="0 0 42 36"><path fill="#fff" fill-rule="evenodd" d="M25.15 15.6c-1.34 1.52-2.1 3.94-2.42 6.46l-.08.65a24.77 24.77 0 0 0-.02 4.7c.07.73.22 1.44.36 2.13.2.95.39 1.84.33 2.64-.13 2.43-4.5 2.43-4.63 0-.05-.8.13-1.7.33-2.64.14-.69.3-1.4.36-2.13l.06-.6c.11-1.2.22-2.29.23-3.3 0-.54-.02-1.06-.08-1.56a7.22 7.22 0 0 0-.36-1.5 5.72 5.72 0 0 0-.67-1.3 7.01 7.01 0 0 0-1.44-1.5 4.72 4.72 0 0 1-1.2 1.52 4.2 4.2 0 0 1-3.22.9c-2.19-.24-3.64-2-5.05-3.72-.32-.4-.64-.78-.97-1.15A9.18 9.18 0 0 0 5 13.65c.78-.3 1.57-.52 2.36-.64 3.09-.45 6.23.46 8.78 2.25a13.96 13.96 0 0 1 3.62 3.72 12.69 12.69 0 0 1 1.25 2.43 62.38 62.38 0 0 0 .95-2.66l.4-1.2 1.03-2.96c2.12-5.88 4.86-11.4 11.35-12.42C35.44 2.06 36.2 2 37 2a5 5 0 0 0-.62 2.01l-.17 1.15c-.26 1.81-.58 4-1.51 5.75-1.84 3.42-6.9 5.11-9.44 4.57a6.2 6.2 0 0 0-.1.11Zm1.02 1.98a11 11 0 0 0-1.3 3.71c-.36 1.96-.42 4.1-.24 5.93.05.61.18 1.2.32 1.88l.08.43c.16.78.35 1.78.29 2.77a3.74 3.74 0 0 1-1.6 2.88c-.83.58-1.82.82-2.71.82-.9 0-1.88-.24-2.71-.82a3.74 3.74 0 0 1-1.6-2.88 10.68 10.68 0 0 1 .37-3.2 17.17 17.17 0 0 0 .37-2.42c.19-1.98.32-3.36.15-4.56-.07-.5-.2-.97-.42-1.4-.5.42-1.05.73-1.6.95a6.45 6.45 0 0 1-3.09.39c-2.56-.28-4.28-2-5.48-3.38-.31-.35-.6-.71-.88-1.05l-.02-.01-.8-.97a7.7 7.7 0 0 0-1.42-1.34L.74 13.19l3.52-1.4c6.02-2.39 12.53.22 16.29 4.88l.85-2.47c.8-2.24 1.72-4.55 2.93-6.62 1.21-2.08 2.76-4 4.87-5.38A13.8 13.8 0 0 1 37 0h4.01l-2.4 3.17h.01s-.07.18-.18.7c-.08.44-.16.94-.24 1.53l-.1.65c-.24 1.67-.62 3.9-1.64 5.8-1.2 2.25-3.36 3.78-5.43 4.67-1.56.67-3.3 1.08-4.86 1.06Z" clip-rule="evenodd"/></svg>
