<svg xmlns="http://www.w3.org/2000/svg" width="1em" height="1em" viewBox="0 0 16 16"><path fill="#986ee2" d="M13.273 7.73a2.51 2.51 0 0 0-3.159-.31a2.5 2.5 0 0 0-.921 1.12a2.2 2.2 0 0 0-.13.44a4.52 4.52 0 0 1-4-4a2.2 2.2 0 0 0 .44-.13a2.5 2.5 0 0 0 1.54-2.31a2.45 2.45 0 0 0-.19-1A2.48 2.48 0 0 0 5.503.19a2.45 2.45 0 0 0-1-.19a2.5 2.5 0 0 0-2.31 1.54a2.52 2.52 0 0 0 .54 2.73c.35.343.79.579 1.27.68v5.1a2.4 2.4 0 0 0-.89.37a2.5 2.5 0 1 0 3.47 3.468a2.5 2.5 0 0 0 .42-1.387a2.45 2.45 0 0 0-.19-1a2.48 2.48 0 0 0-1.81-1.49v-2.4a5.5 5.5 0 0 0 2 1.73a5.7 5.7 0 0 0 2.09.6a2.5 2.5 0 0 0 4.95-.49a2.5 2.5 0 0 0-.77-1.72zm-8.2 3.38c.276.117.512.312.68.56a1.5 1.5 0 0 1-2.08 2.08a1.55 1.55 0 0 1-.56-.68a1.5 1.5 0 0 1-.08-.86a1.49 1.49 0 0 1 1.18-1.18a1.5 1.5 0 0 1 .86.08M4.503 4a1.5 1.5 0 0 1-1.39-.93a1.5 1.5 0 0 1-.08-.86a1.49 1.49 0 0 1 1.18-1.18a1.5 1.5 0 0 1 .86.08A1.5 1.5 0 0 1 4.503 4m8.06 6.56a1.5 1.5 0 0 1-2.45-.49a1.5 1.5 0 0 1-.08-.86a1.49 1.49 0 0 1 1.18-1.18a1.5 1.5 0 0 1 .86.08a1.5 1.5 0 0 1 .49 2.45"></path></svg>
