<svg xmlns="http://www.w3.org/2000/svg" width="1em" height="1em" viewBox="0 0 16 16"><path fill="#dd655f" fill-rule="evenodd" d="M5.616 4.928a2.5 2.5 0 0 1-1.119.922c-.148.06-.458.138-.458.138v5.008q.238.047.46.14a2.51 2.51 0 0 1 1.538 2.31c.008.343-.057.684-.19 1A2.485 2.485 0 0 1 3.5 15.984a2.5 2.5 0 0 1-1.388-.42A2.49 2.49 0 0 1 1.05 13c.095-.486.331-.932.68-1.283c.349-.343.79-.579 1.269-.68V5.949a2.6 2.6 0 0 1-1.269-.68a2.5 2.5 0 0 1-.68-1.283a2.49 2.49 0 0 1 1.06-2.565A2.5 2.5 0 0 1 3.5 1a2.5 2.5 0 0 1 1.807.729a2.5 2.5 0 0 1 .729 1.81c.002.494-.144.977-.42 1.389m-.756 7.861a1.5 1.5 0 0 0-.552-.579a1.45 1.45 0 0 0-.77-.21a1.495 1.495 0 0 0-1.47 1.79a1.49 1.49 0 0 0 1.18 1.179c.288.058.586.03.86-.08c.276-.117.512-.312.68-.56c.15-.226.235-.49.249-.76a1.5 1.5 0 0 0-.177-.78M2.708 4.741c.247.161.536.25.83.25c.271 0 .538-.075.77-.211a1.51 1.51 0 0 0 .729-1.36a1.5 1.5 0 0 0-.25-.76a1.55 1.55 0 0 0-.68-.559a1.5 1.5 0 0 0-.86-.08a1.49 1.49 0 0 0-1.179 1.18c-.058.288-.03.586.08.86c.117.276.312.512.56.68m10.329 6.296c.48.097.922.335 1.269.68c.466.47.729 1.107.725 1.766c.002.493-.144.977-.42 1.388a2.5 2.5 0 0 1-3.848.384a2.5 2.5 0 0 1 .382-3.848a2.4 2.4 0 0 1 .89-.37V7.489h1.002zm.557 3.508a1.49 1.49 0 0 0 .191-1.888a1.55 1.55 0 0 0-.68-.56a1.5 1.5 0 0 0-.86-.08a1.49 1.49 0 0 0-1.179 1.18a1.5 1.5 0 0 0 .08.86a1.497 1.497 0 0 0 2.448.49M11.688 3.4L10 5.088l.707.707l1.688-1.688l1.687 1.688l.707-.707L13.103 3.4l1.688-1.687l-.708-.707l-1.687 1.687l-1.688-1.687l-.707.707z" clip-rule="evenodd"></path></svg>
