<svg xmlns="http://www.w3.org/2000/svg" width="1em" height="1em" viewBox="0 0 16 16"><path fill="#57ab5a" fill-rule="evenodd" d="M5.616 4.928a2.5 2.5 0 0 1-1.119.922c-.148.06-.458.138-.458.138v5.008a2.5 2.5 0 0 1 1.579 1.062c.273.412.419.895.419 1.388c.008.343-.057.684-.19 1A2.485 2.485 0 0 1 3.5 15.984a2.5 2.5 0 0 1-1.388-.419A2.49 2.49 0 0 1 1.05 13c.095-.486.331-.932.68-1.283c.349-.343.79-.579 1.269-.68V5.949a2.6 2.6 0 0 1-1.269-.68a2.5 2.5 0 0 1-.68-1.283a2.49 2.49 0 0 1 1.06-2.565A2.5 2.5 0 0 1 3.5 1a2.5 2.5 0 0 1 1.807.729a2.5 2.5 0 0 1 .729 1.81c.002.494-.144.978-.42 1.389m-.756 7.861a1.5 1.5 0 0 0-.552-.579a1.45 1.45 0 0 0-.77-.21a1.495 1.495 0 0 0-1.47 1.79a1.49 1.49 0 0 0 1.18 1.179c.288.058.586.03.86-.08c.276-.117.512-.312.68-.56c.15-.226.235-.49.249-.76a1.5 1.5 0 0 0-.177-.78M2.708 4.741c.247.161.536.25.83.25c.271 0 .538-.075.77-.211a1.51 1.51 0 0 0 .729-1.359a1.5 1.5 0 0 0-.25-.76a1.55 1.55 0 0 0-.68-.56a1.5 1.5 0 0 0-.86-.08a1.49 1.49 0 0 0-1.179 1.18c-.058.288-.03.586.08.86c.117.276.312.512.56.68m10.329 6.296c.48.097.922.335 1.269.68c.466.47.729 1.107.725 1.766c.002.493-.144.977-.42 1.388a2.499 2.499 0 0 1-4.532-.899a2.5 2.5 0 0 1 1.067-2.565c.267-.183.571-.308.889-.37V5.489a1.5 1.5 0 0 0-1.5-1.499H8.687l1.269 1.27l-.71.709L7.117 3.84v-.7l2.13-2.13l.71.711l-1.269 1.27h1.85a2.48 2.48 0 0 1 2.312 1.541c.125.302.189.628.187.957zm.557 3.509a1.49 1.49 0 0 0 .191-1.89a1.55 1.55 0 0 0-.68-.559a1.5 1.5 0 0 0-.86-.08a1.49 1.49 0 0 0-1.179 1.18a1.5 1.5 0 0 0 .08.86a1.496 1.496 0 0 0 2.448.49z" clip-rule="evenodd"></path></svg>
