<svg xmlns="http://www.w3.org/2000/svg" width="1em" height="1em" viewBox="0 0 16 16"><g fill="#8999a8"><path d="M4.497 5.85a2.5 2.5 0 0 0 1.538-2.31a2.49 2.49 0 0 0-1.538-2.35A2.5 2.5 0 0 0 3.499 1a2.5 2.5 0 0 0-1.388.42A2.49 2.49 0 0 0 1.05 3.987c.095.486.331.932.68 1.283a2.6 2.6 0 0 0 1.269.68v5.088c-.48.101-.92.337-1.269.68c-.349.35-.585.797-.68 1.283s-.047.988.14 1.446c.19.456.51.846.922 1.119a2.5 2.5 0 0 0 1.388.419a2.4 2.4 0 0 0 1-.19a2.485 2.485 0 0 0 1.538-2.349a2.51 2.51 0 0 0-1.998-2.45V5.989s.31-.078.458-.138m-.189 6.36a1.5 1.5 0 0 1 .48 2.12a1.55 1.55 0 0 1-.68.559a1.5 1.5 0 0 1-.86.08a1.49 1.49 0 0 1-1.18-1.18a1.5 1.5 0 0 1 .08-.86c.117-.276.312-.512.56-.68a1.5 1.5 0 0 1 .83-.25c.271-.003.538.07.77.211m-.77-7.22a1.5 1.5 0 0 1-.83-.25a1.55 1.55 0 0 1-.56-.68a1.5 1.5 0 0 1-.08-.86a1.49 1.49 0 0 1 1.18-1.179a1.5 1.5 0 0 1 .86.08c.276.117.512.312.68.56A1.49 1.49 0 0 1 4.86 4.2a1.5 1.5 0 0 1-.552.579c-.232.136-.499.21-.77.21"></path><path fill-rule="evenodd" d="M15.054 13.5a2.5 2.5 0 1 1-5 0a2.5 2.5 0 0 1 5 0m-2.5 1.5a1.5 1.5 0 1 0 0-3a1.5 1.5 0 0 0 0 3" clip-rule="evenodd"></path><circle cx="12.554" cy="7.751" r="1"></circle><circle cx="12.554" cy="3.501" r="1"></circle></g></svg>
